<svg id="Group_115167" data-name="Group 115167" xmlns="http://www.w3.org/2000/svg" xmlns:xlink="http://www.w3.org/1999/xlink" width="60" height="60" viewBox="0 0 60 60">
  <defs>
    <clipPath id="clip-path">
      <circle id="Ellipse_5" data-name="Ellipse 5" cx="30" cy="30" r="30" fill="none"/>
    </clipPath>
    <linearGradient id="linear-gradient" x1="0.086" y1="0.854" x2="0.685" y2="0.867" gradientUnits="objectBoundingBox">
      <stop offset="0" stop-color="#0071a8"/>
      <stop offset="0.414" stop-color="#018bc3"/>
      <stop offset="0.75" stop-color="#039ed7"/>
      <stop offset="1" stop-color="#04a6df"/>
    </linearGradient>
    <clipPath id="clip-path-2">
      <rect id="Rectangle_17129" data-name="Rectangle 17129" width="60" height="60" fill="none"/>
    </clipPath>
  </defs>
  <g id="Group_115164" data-name="Group 115164">
    <g id="Group_115163" data-name="Group 115163" clip-path="url(#clip-path)">
      <rect id="Rectangle_17128" data-name="Rectangle 17128" width="84.853" height="84.853" transform="translate(-30 30) rotate(-45)" fill="url(#linear-gradient)"/>
    </g>
  </g>
  <g id="Group_115166" data-name="Group 115166">
    <g id="Group_115165" data-name="Group 115165" clip-path="url(#clip-path-2)">
      <path id="Path_78604" data-name="Path 78604" d="M15.711,26.227a.314.314,0,0,1-.215-.062.289.289,0,0,1-.068-.221V18.376a.289.289,0,0,1,.068-.221.309.309,0,0,1,.215-.062h.817a.294.294,0,0,1,.318.249l.079.3a2.518,2.518,0,0,1,.823-.522,2.629,2.629,0,0,1,.981-.193,2.109,2.109,0,0,1,1.742.806,3.4,3.4,0,0,1,.641,2.178,3.957,3.957,0,0,1-.318,1.645,2.574,2.574,0,0,1-.862,1.084,2.129,2.129,0,0,1-1.248.38,2.635,2.635,0,0,1-.885-.148,2.126,2.126,0,0,1-.715-.408v2.485a.234.234,0,0,1-.283.283Zm2.485-3.46a1.063,1.063,0,0,0,.936-.431,2.424,2.424,0,0,0,.3-1.362,2.487,2.487,0,0,0-.3-1.372,1.06,1.06,0,0,0-.942-.432,2.165,2.165,0,0,0-1.112.307v2.984a2.088,2.088,0,0,0,1.112.306" fill="#fff"/>
      <path id="Path_78605" data-name="Path 78605" d="M22.484,23.891a.246.246,0,0,1-.284-.284v-5.23a.288.288,0,0,1,.069-.221.309.309,0,0,1,.215-.063H23.3a.294.294,0,0,1,.318.25l.147.613a3.222,3.222,0,0,1,.857-.709,1.824,1.824,0,0,1,.856-.21h.159a.335.335,0,0,1,.227.062.293.293,0,0,1,.068.221v.953a.315.315,0,0,1-.062.216.3.3,0,0,1-.222.068c-.053,0-.121,0-.2-.011s-.189-.012-.317-.012a3.394,3.394,0,0,0-.636.074,3.139,3.139,0,0,0-.635.187v3.812a.311.311,0,0,1-.063.216.292.292,0,0,1-.221.068Z" fill="#fff"/>
      <path id="Path_78606" data-name="Path 78606" d="M27.491,17.2a.983.983,0,0,1-.692-.238.932.932,0,0,1,0-1.294,1.125,1.125,0,0,1,1.384,0,.932.932,0,0,1,0,1.294.986.986,0,0,1-.692.238m-.545,6.694a.245.245,0,0,1-.284-.284v-5.23a.292.292,0,0,1,.068-.221.313.313,0,0,1,.216-.063h1.089a.236.236,0,0,1,.284.284v5.23a.311.311,0,0,1-.063.216.292.292,0,0,1-.221.068Z" fill="#fff"/>
      <path id="Path_78607" data-name="Path 78607" d="M29.984,23.891a.245.245,0,0,1-.284-.284v-5.23a.292.292,0,0,1,.068-.221.311.311,0,0,1,.216-.063H30.8a.293.293,0,0,1,.317.25l.091.306a4.882,4.882,0,0,1,1.084-.561,3.042,3.042,0,0,1,.993-.165,1.526,1.526,0,0,1,1.44.726,4.682,4.682,0,0,1,1.089-.556,3.336,3.336,0,0,1,1.056-.17,1.654,1.654,0,0,1,1.231.443,1.684,1.684,0,0,1,.436,1.236v4.005a.317.317,0,0,1-.062.216.293.293,0,0,1-.221.068H37.166a.245.245,0,0,1-.284-.284V19.965q0-.771-.692-.771a2.873,2.873,0,0,0-1.237.3v4.118a.317.317,0,0,1-.062.216.3.3,0,0,1-.221.068H33.58a.245.245,0,0,1-.283-.284V19.965q0-.771-.692-.771a2.762,2.762,0,0,0-1.248.306v4.107a.311.311,0,0,1-.063.216.292.292,0,0,1-.221.068Z" fill="#fff"/>
      <path id="Path_78608" data-name="Path 78608" d="M42.432,24.072a2.855,2.855,0,0,1-2.194-.791A3.146,3.146,0,0,1,39.518,21a3.182,3.182,0,0,1,.806-2.245,2.72,2.72,0,0,1,1.982-.789,2.383,2.383,0,0,1,1.842.613,1.7,1.7,0,0,1,.477,1.173,1.68,1.68,0,0,1-.153.818,1.332,1.332,0,0,1-.318.415,3.66,3.66,0,0,1-2.424.546l-.718-.109a1.468,1.468,0,0,0,.491,1.111,1.908,1.908,0,0,0,1.243.3,5.4,5.4,0,0,0,1.3-.209c.03-.008.088-.022.108-.025a.276.276,0,0,1,.1,0c.06.021.128.078.128.243v.522a.475.475,0,0,1-.047.255.424.424,0,0,1-.2.134,4.781,4.781,0,0,1-1.711.316m.689-4.252c0-.553-.39-.712-.871-.712a1.114,1.114,0,0,0-.831.343,1.772,1.772,0,0,0-.384.99,5.234,5.234,0,0,0,1.465.053.653.653,0,0,0,.621-.674" fill="#fff"/>
      <path id="Path_78609" data-name="Path 78609" d="M35.438,35.742a3.019,3.019,0,0,1-2.32-.837,3.332,3.332,0,0,1-.762-2.411,3.363,3.363,0,0,1,.852-2.374,2.88,2.88,0,0,1,2.1-.835,2.515,2.515,0,0,1,1.948.649,1.791,1.791,0,0,1,.505,1.24,1.756,1.756,0,0,1-.163.865,1.4,1.4,0,0,1-.335.439,3.873,3.873,0,0,1-2.565.578l-.759-.115a1.553,1.553,0,0,0,.519,1.174,2.014,2.014,0,0,0,1.315.314,5.718,5.718,0,0,0,1.379-.22c.031-.008.093-.024.114-.027a.267.267,0,0,1,.11.005c.064.022.137.083.137.256v.552a.505.505,0,0,1-.051.271.455.455,0,0,1-.211.142,5.065,5.065,0,0,1-1.81.334m.729-4.5c0-.585-.413-.753-.921-.753a1.182,1.182,0,0,0-.88.363,1.879,1.879,0,0,0-.405,1.047,5.529,5.529,0,0,0,1.549.056.691.691,0,0,0,.657-.713" fill="#fff"/>
      <path id="Path_78610" data-name="Path 78610" d="M17.974,35.55a.558.558,0,0,1-.2-.03.314.314,0,0,1-.132-.1.717.717,0,0,1-.1-.186L15.49,29.9q-.036-.1-.06-.168a.42.42,0,0,1-.024-.132q0-.18.24-.18h1.2a.45.45,0,0,1,.282.072.46.46,0,0,1,.138.24L18.5,33.978l1.26-4.248a.46.46,0,0,1,.138-.24.45.45,0,0,1,.282-.072h1.164q.24,0,.24.18a.42.42,0,0,1-.024.132q-.024.072-.06.168l-2.052,5.34a.717.717,0,0,1-.1.186.322.322,0,0,1-.126.1.549.549,0,0,1-.2.03Z" fill="#fff"/>
      <path id="Path_78611" data-name="Path 78611" d="M23.207,28.47a1.041,1.041,0,0,1-.731-.252.983.983,0,0,1,0-1.368,1.188,1.188,0,0,1,1.463,0,.986.986,0,0,1,0,1.368,1.043,1.043,0,0,1-.732.252m-.575,7.08a.259.259,0,0,1-.3-.3V29.718a.309.309,0,0,1,.072-.234.333.333,0,0,1,.229-.066h1.151a.249.249,0,0,1,.3.3V35.25a.33.33,0,0,1-.066.228.307.307,0,0,1-.234.072Z" fill="#fff"/>
      <path id="Path_78612" data-name="Path 78612" d="M27.753,35.682a2.309,2.309,0,0,1-1.356-.4,2.545,2.545,0,0,1-.882-1.116,4.158,4.158,0,0,1-.306-1.65,3.729,3.729,0,0,1,.708-2.382,2.27,2.27,0,0,1,1.872-.894,2.6,2.6,0,0,1,1.644.54V26.97a.309.309,0,0,1,.072-.234.33.33,0,0,1,.228-.066h1.152a.249.249,0,0,1,.3.3v8.28a.33.33,0,0,1-.066.228.309.309,0,0,1-.234.072h-.96a.3.3,0,0,1-.336-.264l-.072-.276a2.544,2.544,0,0,1-1.764.672m.576-1.32a2.026,2.026,0,0,0,1.1-.336V30.858a2.32,2.32,0,0,0-1.188-.3,1.057,1.057,0,0,0-.948.474,2.64,2.64,0,0,0-.312,1.434,2.493,2.493,0,0,0,.33,1.428,1.156,1.156,0,0,0,1.014.468" fill="#fff"/>
      <path id="Path_78613" data-name="Path 78613" d="M41.625,35.73a2.91,2.91,0,0,1-2.232-.858,3.365,3.365,0,0,1-.8-2.394,3.347,3.347,0,0,1,.8-2.382,3.332,3.332,0,0,1,4.464,0,3.347,3.347,0,0,1,.8,2.382,3.365,3.365,0,0,1-.8,2.394,2.91,2.91,0,0,1-2.232.858m0-1.344q1.26,0,1.26-1.908t-1.26-1.9q-1.26,0-1.26,1.9t1.26,1.908" fill="#fff"/>
      <path id="Path_78614" data-name="Path 78614" d="M15.535,38.6v.088a.4.4,0,0,0,.125.227A20.547,20.547,0,0,0,30.1,44.853,19.889,19.889,0,0,0,41.915,40.96a.465.465,0,1,0-.464-.806,26.951,26.951,0,0,1-11.018,2.431,27.452,27.452,0,0,1-14.444-4.13.4.4,0,0,0-.207-.066.245.245,0,0,0-.247.213" fill="#fff" fill-rule="evenodd"/>
      <path id="Path_78615" data-name="Path 78615" d="M39.279,39a.428.428,0,0,0-.184.269v.052c.013.1.1.162.263.142,1.028-.133,3.322-.427,3.731.136s-.455,2.879-.84,3.911c-.116.311.134.439.4.2,1.715-1.539,2.158-4.766,1.806-5.231a3.135,3.135,0,0,0-1.929-.432A5.476,5.476,0,0,0,39.279,39" fill="#fff" fill-rule="evenodd"/>
    </g>
  </g>
</svg>
